<?xml version="1.0" encoding="utf-8"?>
<!-- Generator: Adobe Illustrator 15.0.0, SVG Export Plug-In . SVG Version: 6.00 Build 0)  -->
<!DOCTYPE svg PUBLIC "-//W3C//DTD SVG 1.1//EN" "http://www.w3.org/Graphics/SVG/1.1/DTD/svg11.dtd">
<svg xmlns="http://www.w3.org/2000/svg" xmlns:xlink="http://www.w3.org/1999/xlink" version="1.1" id="Слой_1" x="0px" y="0px" width="50px" height="50px" viewBox="0 0 50 50" enable-background="new 0 0 50 50" xml:space="preserve" fill="#000000">
<path d="M16.163,20.731c0.263,2.194,1.138,3.089,1.842,3.453c0.34,1.733,1.288,3.689,2.209,4.608l0.002,0.468  c0.005,0.659,0.008,1.269-0.016,1.923C20.725,32.277,22.372,34,26,34c3.656,0,5.365-1.743,5.85-2.957  c-0.018-0.6-0.016-1.168-0.011-1.779l0.003-0.479c0.895-0.915,1.816-2.855,2.155-4.59c0.724-0.36,1.58-1.26,1.844-3.464  c0.132-1.09-0.187-1.928-0.624-2.48c0.581-1.979,1.78-7.123-0.27-10.423c-0.859-1.384-2.161-2.255-3.874-2.594  c-0.944-1.193-2.753-1.843-5.184-1.843c-3.681,0.068-6.375,1.193-8.007,3.343c-1.933,2.547-2.292,6.409-1.069,11.484  C16.363,18.769,16.03,19.619,16.163,20.731z" fill="#000000"/>
<path d="M46,44.939c-0.363-6.065-5.208-7.979-9.102-9.516c-1.688-0.667-3.207-1.273-4.156-2.087C31.48,34.792,29.257,36,26,36  c-3.315,0-5.486-1.233-6.72-2.639c-0.954,0.801-2.463,1.402-4.143,2.063c-3.907,1.537-8.771,3.451-9.135,9.516L5.938,46h40.125  L46,44.939z" fill="#000000"/>
</svg>
