<?xml version="1.0" encoding="utf-8"?>
<!-- Generator: Adobe Illustrator 15.0.0, SVG Export Plug-In . SVG Version: 6.00 Build 0)  -->
<!DOCTYPE svg PUBLIC "-//W3C//DTD SVG 1.1//EN" "http://www.w3.org/Graphics/SVG/1.1/DTD/svg11.dtd">
<svg xmlns="http://www.w3.org/2000/svg" xmlns:xlink="http://www.w3.org/1999/xlink" version="1.1" id="Слой_1" x="0px" y="0px" width="50px" height="50px" viewBox="0 0 50 50" enable-background="new 0 0 50 50" xml:space="preserve" fill="#000000">
<path d="M41.047,49.999h-0.063c-8.539-0.273-18.571-8.58-25.489-15.5C8.576,27.579,0.271,17.545,0.001,9.04  c-0.092-2.877,7.207-8.213,7.281-8.265c1.627-1.134,3.814-0.919,4.704,0.312c0.583,0.807,6.161,9.264,6.771,10.227  c0.603,0.949,0.508,2.377-0.254,3.821c-0.441,0.84-1.935,3.465-2.585,4.605c0.688,0.996,2.617,3.565,6.694,7.642  c4.101,4.1,6.651,6.014,7.641,6.698c1.141-0.651,3.767-2.146,4.609-2.589c1.396-0.737,2.849-0.844,3.803-0.262  c1.002,0.613,9.439,6.223,10.227,6.773c0.619,0.434,1.019,1.182,1.096,2.055c0.079,0.891-0.195,1.835-0.772,2.659  C49.163,42.788,43.893,49.999,41.047,49.999z" fill="#000000"/>
</svg>
