<?xml version="1.0" encoding="utf-8"?>
<!-- Generator: Adobe Illustrator 15.0.0, SVG Export Plug-In . SVG Version: 6.00 Build 0)  -->
<!DOCTYPE svg PUBLIC "-//W3C//DTD SVG 1.1//EN" "http://www.w3.org/Graphics/SVG/1.1/DTD/svg11.dtd">
<svg xmlns="http://www.w3.org/2000/svg" xmlns:xlink="http://www.w3.org/1999/xlink" version="1.1" id="Layer_1" x="0px" y="0px" width="50px" height="50px" viewBox="0 0 50 50" enable-background="new 0 0 50 50" xml:space="preserve" fill="#000000">
<path d="M9.636,50c-0.805,0-1.618-0.272-2.352-0.786C7.212,49.163-0.088,43.836,0,40.984c0.275-8.541,8.581-18.572,15.5-25.488  C22.42,8.577,32.454,0.272,40.96,0.001c0,0,0,0,0.001,0c2.95,0,8.213,7.208,8.264,7.281c1.283,1.839,0.838,3.874-0.313,4.704  c-0.812,0.586-9.268,6.163-10.227,6.77c-0.942,0.599-2.396,0.498-3.82-0.254c-0.841-0.441-3.465-1.935-4.606-2.585  c-0.995,0.688-3.565,2.617-7.641,6.694c-4.1,4.101-6.014,6.651-6.698,7.641c0.651,1.141,2.146,3.767,2.588,4.609  c0.751,1.42,0.85,2.842,0.262,3.803c-0.606,0.992-6.218,9.434-6.772,10.227C11.51,49.586,10.628,50,9.636,50z" fill="#000000"/>
</svg>
